<mxfile host="app.diagrams.net" modified="2024-01-30T00:38:51.874Z" agent="Mozilla/5.0 (Windows NT 10.0; Win64; x64) AppleWebKit/537.36 (KHTML, like Gecko) Chrome/121.0.0.0 Safari/537.36" etag="B28-xSwO3Lphfn1RfMHy" version="23.0.2" type="github">
  <diagram name="Page-1" id="x32M6I0S0dmOJzpFAHQd">
    <mxGraphModel dx="819" dy="467" grid="1" gridSize="10" guides="1" tooltips="1" connect="1" arrows="1" fold="1" page="1" pageScale="1" pageWidth="850" pageHeight="1100" math="0" shadow="0">
      <root>
        <mxCell id="0" />
        <mxCell id="1" parent="0" />
        <mxCell id="XGquTXinsQvNWkNOk7ZS-10" value="" style="whiteSpace=wrap;html=1;aspect=fixed;fillColor=#fff2cc;strokeColor=#d6b656;" vertex="1" parent="1">
          <mxGeometry width="330" height="330" as="geometry" />
        </mxCell>
        <mxCell id="XGquTXinsQvNWkNOk7ZS-1" value="11" style="whiteSpace=wrap;html=1;aspect=fixed;" vertex="1" parent="1">
          <mxGeometry x="20" y="10" width="80" height="80" as="geometry" />
        </mxCell>
        <mxCell id="XGquTXinsQvNWkNOk7ZS-2" value="4" style="whiteSpace=wrap;html=1;aspect=fixed;" vertex="1" parent="1">
          <mxGeometry x="20" y="120" width="80" height="80" as="geometry" />
        </mxCell>
        <mxCell id="XGquTXinsQvNWkNOk7ZS-3" value="10" style="whiteSpace=wrap;html=1;aspect=fixed;" vertex="1" parent="1">
          <mxGeometry x="20" y="230" width="80" height="80" as="geometry" />
        </mxCell>
        <mxCell id="XGquTXinsQvNWkNOk7ZS-4" value="2" style="whiteSpace=wrap;html=1;aspect=fixed;" vertex="1" parent="1">
          <mxGeometry x="130" y="10" width="80" height="80" as="geometry" />
        </mxCell>
        <mxCell id="XGquTXinsQvNWkNOk7ZS-5" value="5" style="whiteSpace=wrap;html=1;aspect=fixed;" vertex="1" parent="1">
          <mxGeometry x="130" y="120" width="80" height="80" as="geometry" />
        </mxCell>
        <mxCell id="XGquTXinsQvNWkNOk7ZS-6" value="8" style="whiteSpace=wrap;html=1;aspect=fixed;" vertex="1" parent="1">
          <mxGeometry x="130" y="230" width="80" height="80" as="geometry" />
        </mxCell>
        <mxCell id="XGquTXinsQvNWkNOk7ZS-7" value="4" style="whiteSpace=wrap;html=1;aspect=fixed;" vertex="1" parent="1">
          <mxGeometry x="240" y="10" width="80" height="80" as="geometry" />
        </mxCell>
        <mxCell id="XGquTXinsQvNWkNOk7ZS-8" value="6" style="whiteSpace=wrap;html=1;aspect=fixed;" vertex="1" parent="1">
          <mxGeometry x="240" y="120" width="80" height="80" as="geometry" />
        </mxCell>
        <mxCell id="XGquTXinsQvNWkNOk7ZS-9" value="-12" style="whiteSpace=wrap;html=1;aspect=fixed;" vertex="1" parent="1">
          <mxGeometry x="240" y="230" width="80" height="80" as="geometry" />
        </mxCell>
        <mxCell id="XGquTXinsQvNWkNOk7ZS-11" value="11+5+(-12) = 4" style="rounded=0;whiteSpace=wrap;html=1;" vertex="1" parent="1">
          <mxGeometry x="365" y="30" width="120" height="60" as="geometry" />
        </mxCell>
        <mxCell id="XGquTXinsQvNWkNOk7ZS-13" value="Left to Right&amp;nbsp;" style="text;html=1;strokeColor=none;fillColor=none;align=center;verticalAlign=middle;whiteSpace=wrap;rounded=0;" vertex="1" parent="1">
          <mxGeometry x="363" width="125" height="30" as="geometry" />
        </mxCell>
        <mxCell id="XGquTXinsQvNWkNOk7ZS-14" value="4+5+10=19" style="rounded=0;whiteSpace=wrap;html=1;" vertex="1" parent="1">
          <mxGeometry x="522" y="30" width="120" height="60" as="geometry" />
        </mxCell>
        <mxCell id="XGquTXinsQvNWkNOk7ZS-15" value="Right to Left" style="text;html=1;strokeColor=none;fillColor=none;align=center;verticalAlign=middle;whiteSpace=wrap;rounded=0;" vertex="1" parent="1">
          <mxGeometry x="520" width="125" height="30" as="geometry" />
        </mxCell>
        <mxCell id="XGquTXinsQvNWkNOk7ZS-16" value="result = |4-19|&lt;br&gt;result = 15" style="rounded=0;whiteSpace=wrap;html=1;" vertex="1" parent="1">
          <mxGeometry x="440" y="120" width="120" height="60" as="geometry" />
        </mxCell>
      </root>
    </mxGraphModel>
  </diagram>
</mxfile>
